# 3ds Max Wavefront OBJ Exporter v0.97b - (c)2007 guruware
# File Created: 22.12.2021 11:48:59

#
# object Big_Box
#

v  -1.5015 -0.0437 2.3894
v  0.1239 -0.0437 1.7475
v  -0.9983 -0.0437 1.2466
v  -0.3793 -0.0437 2.8903
v  -1.5015 -2.5111 2.3894
v  -0.9983 -2.5111 1.2466
v  -0.3793 -2.5111 2.8903
v  0.1239 -2.5111 1.7475
# 8 vertices

vn -0.7616 0.5776 0.2938
vn 0.7616 0.5776 -0.2938
vn -0.2939 0.5771 -0.7619
vn 0.2939 0.5771 0.7619
vn -0.9330 0.0000 0.3598
vn -0.3598 0.0000 -0.9330
vn 0.3598 0.0000 0.9330
vn 0.9330 0.0000 -0.3598
# 8 vertex normals

vt 0.0020 0.0020 0.2632
vt 0.9980 0.0020 -0.2632
vt 0.2410 0.0020 -0.5000
vt 0.7590 0.0020 0.5000
vt 0.0020 0.9980 0.2632
vt 0.2410 0.9980 -0.5000
vt 0.7590 0.9980 0.5000
vt 0.9980 0.9980 -0.2632
# 8 texture coords

g Big_Box
f 1/1/1 2/2/2 3/3/3 
f 2/2/2 1/1/1 4/4/4 
f 5/5/5 3/3/3 6/6/6 
f 3/3/3 5/5/5 1/1/1 
f 7/7/7 1/1/1 5/5/5 
f 1/1/1 7/7/7 4/4/4 
f 8/8/8 4/4/4 7/7/7 
f 4/4/4 8/8/8 2/2/2 
f 6/6/6 2/2/2 8/8/8 
f 2/2/2 6/6/6 3/3/3 
# 10 faces

