# 3ds Max Wavefront OBJ Exporter v0.97b - (c)2007 guruware
# File Created: 22.12.2021 11:48:31

#
# object Ground
#

v  -2.0643 -2.5111 3.4789
v  2.0643 -2.5111 -0.6950
v  -2.0644 -2.5111 -0.6950
v  2.0643 -2.5111 3.4789
v  2.0643 2.6932 -0.6950
v  -2.0643 2.6932 3.4789
v  -2.0644 2.6932 -0.6950
v  2.0643 2.6932 3.4789
# 8 vertices

vn 0.0000 0.7067 -0.7076
vn 0.0000 1.0000 0.0000
vn 0.0000 0.7071 -0.7071
vn 0.0000 -1.0000 0.0000
vn 0.0000 -0.7098 -0.7044
vn 0.0000 -0.7071 -0.7071
# 6 vertex normals

vt 0.0168 0.9980 0.5000
vt 0.9980 0.9980 -0.5000
vt 0.0069 0.9980 -0.5000
vt 0.9980 0.9980 0.5000
vt 0.9980 0.0020 -0.5000
vt 0.0020 0.0020 0.5000
vt 0.0020 0.0020 -0.5000
vt 0.9980 0.0020 0.5000
# 8 texture coords

g Ground
f 1/1/1 2/2/2 3/3/2 
f 2/2/2 1/1/1 4/4/3 
f 5/5/4 6/6/5 7/7/4 
f 6/6/5 5/5/4 8/8/6 
f 8/8/6 1/1/1 6/6/5 
f 1/1/1 8/8/6 4/4/3 
# 6 faces

