# 3ds Max Wavefront OBJ Exporter v0.97b - (c)2007 guruware
# File Created: 22.12.2021 11:48:18

#
# object Wall_Left
#

v  2.0643 -2.5111 -0.6950
v  2.0643 -2.5111 3.4789
v  2.0643 2.6932 -0.6950
v  2.0643 2.6932 3.4789
# 4 vertices

vn -0.9999 0.0040 -0.0098
vn -1.0000 0.0074 -0.0056
vn -1.0000 0.0085 -0.0042
vn -0.9999 0.0119 0.0000
# 4 vertex normals

vt 0.0069 0.9980 -0.5000
vt 0.0168 0.9980 0.5000
vt 0.0020 0.0020 -0.5000
vt 0.0020 0.0020 0.5000
# 4 texture coords

g Wall_Left
f 1/1/1 2/2/2 3/3/3 
f 4/4/4 3/3/3 2/2/2 
# 2 faces

